PathFileType	4	(X/Y/Z)	C:\Git\research_data\Projects\torsion_deformities_healthy_kinematics\simulations\P01\pre\dynamic07_l\marker_experimental.trc
DataRate	CameraRate	NumFrames	NumMarkers	Units	OrigDataRate	OrigDataStartFrame	OrigNumFrames
200	200	4	34	mm	200	602	802
Frame#	Time	C7			T10			CLAV			STRN			RBAK			LASI			RASI			SACR			LT1			LT2			LT3			LS1			LS2			LS3			LHEE			LTOE			RT1			RT2			RT3			RS1			RS2			RS3			RHEE			RTOE			LKNE			LANK			RKNE			RANK			LAJC			LKJC			RAJC			RKJC			RHJC			LHJC		
		X1	Y1	Z1	X2	Y2	Z2	X3	Y3	Z3	X4	Y4	Z4	X5	Y5	Z5	X6	Y6	Z6	X7	Y7	Z7	X8	Y8	Z8	X9	Y9	Z9	X10	Y10	Z10	X11	Y11	Z11	X12	Y12	Z12	X13	Y13	Z13	X14	Y14	Z14	X15	Y15	Z15	X16	Y16	Z16	X17	Y17	Z17	X18	Y18	Z18	X19	Y19	Z19	X20	Y20	Z20	X21	Y21	Z21	X22	Y22	Z22	X23	Y23	Z23	X24	Y24	Z24	X25	Y25	Z25	X26	Y26	Z26	X27	Y27	Z27	X28	Y28	Z28	X29	Y29	Z29	X30	Y30	Z30	X31	Y31	Z31	X32	Y32	Z32	X33	Y33	Z33	X34	Y34	Z34	

602	3.005000	1187.882568	1027.006104	337.180847	1171.415283	852.711060	340.442474	1307.758911	1000.344421	348.368958	1360.588623	871.172058	356.282867	1162.738159	972.274841	425.252472	1296.675903	689.457520	250.423920	1293.023071	694.862549	461.591919	1149.776855	746.843140	354.869110	1241.657104	501.482422	216.035004	1164.967773	440.025085	212.874100	1296.735962	395.110443	248.523987	1168.033691	261.375427	221.681747	1062.525879	207.518051	189.385635	1190.004639	168.109390	240.616577	1045.059326	60.860340	254.113281	1184.202759	47.649460	279.510162	1280.206543	537.234802	506.941315	1250.181885	446.829865	494.599182	1387.455688	483.441010	504.800751	1340.789307	301.229462	501.150360	1245.411865	223.916809	509.331543	1387.116455	217.741409	496.270508	1281.824951	63.455914	447.736084	1425.445312	65.362907	448.680389	1190.549561	355.421600	240.026550	1095.085571	50.599468	234.835663	1348.381348	380.518707	488.196716	1323.550903	64.349083	481.510071	1092.213013	48.832893	268.563751	1193.030884	346.924194	290.744415	1327.414673	69.800163	445.245148	1355.610840	378.535767	434.893402	1223.239875	641.234997	433.128099	1225.903178	637.294156	279.164182	
603	3.010000	1194.659180	1026.162964	337.696045	1177.985107	851.853088	340.887726	1314.627686	999.126404	349.236877	1367.135254	869.834045	356.927216	1169.192261	971.422485	425.536377	1302.428833	688.168945	250.551163	1299.615234	693.696167	462.179443	1156.112427	745.860168	355.790680	1246.308716	500.653748	216.818665	1169.186279	439.805817	213.457001	1300.589111	393.781342	249.443237	1169.971313	261.237823	222.331345	1064.027710	208.422485	190.221405	1191.196045	167.738892	241.017120	1045.208862	61.774170	254.820938	1184.306519	47.624695	279.638092	1287.227661	536.399597	506.999756	1256.864868	445.958557	494.642487	1394.340332	482.432251	503.789978	1350.337769	301.084961	501.329041	1258.268311	219.861786	510.551971	1400.058594	219.518921	497.088654	1301.427856	60.107620	450.216827	1445.058838	68.069382	450.907166	1194.138428	354.946808	240.674423	1095.333740	51.040272	235.261215	1354.830444	379.562988	487.219574	1342.903320	63.516006	483.981506	1092.533936	49.230373	268.993134	1196.446533	346.426147	291.396545	1346.433228	68.775734	447.654327	1361.593018	377.714264	433.850189	1229.589319	640.050100	433.944981	1231.640318	636.020981	279.676582	
604	3.015000	1201.437012	1025.265259	338.270081	1184.577026	850.936646	341.382111	1321.501465	997.863098	350.142731	1373.698486	868.461426	357.608673	1175.663696	970.502930	425.889587	1308.263794	686.846191	250.716248	1306.231812	692.456787	462.797791	1162.499512	744.827332	356.711395	1250.960815	499.838898	217.570786	1173.411621	439.600464	214.085693	1304.481323	392.473450	250.260742	1172.002441	261.113708	222.985764	1065.628784	209.369400	191.028748	1192.448242	167.380310	241.433472	1045.383667	62.742958	255.491333	1184.425537	47.601810	279.761810	1294.214233	535.453918	507.061432	1263.479370	444.981384	494.689026	1401.143555	481.284973	502.780731	1359.833374	300.952209	501.502625	1271.184326	216.065842	511.973328	1412.799438	221.386261	497.771454	1320.769165	57.172817	452.634918	1464.221313	71.117493	452.998596	1197.766968	354.487152	241.332642	1095.622070	51.528454	235.675064	1361.162720	378.470917	486.244629	1362.002319	63.121868	486.428101	1092.882568	49.676010	269.409637	1199.957275	345.939880	292.055511	1365.138794	68.171745	450.035126	1367.455933	376.756134	432.813385	1235.970124	638.800332	434.764565	1237.451061	634.711250	280.196522	
605	3.020000	1208.214600	1024.317993	338.905304	1191.192505	849.966614	341.925751	1328.376953	996.565247	351.088867	1380.280518	867.066772	358.331451	1182.152100	969.521606	426.313690	1314.193359	685.498901	250.922592	1312.879028	691.155884	463.445404	1168.943848	743.751709	357.627136	1255.616455	499.041656	218.285843	1177.639526	439.419891	214.761734	1308.403564	391.180542	250.956116	1174.123901	261.008209	223.634277	1067.310913	210.365601	191.811188	1193.757324	167.038101	241.849716	1045.587158	63.770176	256.110596	1184.563354	47.581882	279.877228	1301.178223	534.409424	507.136261	1270.055054	443.909546	494.755157	1407.889038	480.027557	501.789673	1369.283203	300.829193	501.671844	1284.126709	212.569092	513.583557	1425.321167	223.309509	498.305908	1339.741943	54.642223	454.950562	1482.840576	74.450859	454.920685	1201.421143	354.051300	241.992630	1095.935303	52.075710	236.072723	1367.423096	377.267151	485.295349	1380.761597	63.135921	488.812134	1093.249023	50.180885	269.809204	1203.554565	345.469025	292.712006	1383.445190	67.954231	452.351593	1373.246216	375.683960	431.806793	1242.390733	637.496639	435.584656	1243.348450	633.374549	280.725049	
